<svg xmlns="http://www.w3.org/2000/svg" xmlns:xlink="http://www.w3.org/1999/xlink" width="500" zoomAndPan="magnify" viewBox="0 0 375 374.999991" height="500" preserveAspectRatio="xMidYMid meet" version="1.0"><defs><g/><clipPath id="daa2b95aa3"><path d="M 81.316406 10.484375 L 293.710938 10.484375 L 293.710938 274.058594 L 81.316406 274.058594 Z M 81.316406 10.484375 " clip-rule="nonzero"/></clipPath></defs><path fill="#ffffff" d="M 235.042969 221.730469 C 228.140625 221.730469 228.140625 232.179688 235.042969 232.179688 C 241.957031 232.179688 241.945312 221.730469 235.042969 221.730469 " fill-opacity="1" fill-rule="nonzero"/><path fill="#ffffff" d="M 134.714844 135.65625 C 134.714844 142.558594 145.175781 142.558594 145.175781 135.65625 C 145.175781 128.742188 134.714844 128.742188 134.714844 135.65625 " fill-opacity="1" fill-rule="nonzero"/><path fill="#ffffff" d="M 182.277344 226.949219 C 182.277344 233.863281 192.722656 233.851562 192.722656 226.949219 C 192.722656 220.046875 182.277344 220.046875 182.277344 226.949219 " fill-opacity="1" fill-rule="nonzero"/><path fill="#ffffff" d="M 182.277344 181.300781 C 182.277344 188.203125 192.722656 188.203125 192.722656 181.300781 C 192.722656 174.398438 182.277344 174.398438 182.277344 181.300781 " fill-opacity="1" fill-rule="nonzero"/><path fill="#ffffff" d="M 229.824219 181.300781 C 229.824219 188.203125 240.273438 188.203125 240.273438 181.300781 C 240.273438 174.398438 229.824219 174.398438 229.824219 181.300781 " fill-opacity="1" fill-rule="nonzero"/><path fill="#ffffff" d="M 229.824219 135.65625 C 229.824219 142.558594 240.273438 142.558594 240.273438 135.65625 C 240.273438 128.742188 229.824219 128.742188 229.824219 135.65625 " fill-opacity="1" fill-rule="nonzero"/><path fill="#ffffff" d="M 118.542969 65.515625 C 118.542969 53.574219 128.253906 43.871094 140.183594 43.871094 L 234.816406 43.871094 C 246.738281 43.871094 256.460938 53.574219 256.460938 65.515625 L 256.460938 69.789062 C 256.460938 81.71875 246.738281 91.433594 234.816406 91.433594 L 140.183594 91.433594 C 128.253906 91.433594 118.542969 81.71875 118.542969 69.789062 Z M 235.042969 155.15625 C 224.296875 155.15625 215.542969 146.402344 215.542969 135.65625 C 215.542969 124.898438 224.296875 116.144531 235.042969 116.144531 C 245.800781 116.144531 254.558594 124.898438 254.558594 135.65625 C 254.558594 146.402344 245.800781 155.15625 235.042969 155.15625 Z M 235.042969 200.804688 C 224.296875 200.804688 215.542969 192.058594 215.542969 181.300781 C 215.542969 170.546875 224.296875 161.800781 235.042969 161.800781 C 245.800781 161.800781 254.558594 170.546875 254.558594 181.300781 C 254.558594 192.058594 245.800781 200.804688 235.042969 200.804688 Z M 235.042969 246.449219 C 224.296875 246.449219 215.542969 237.707031 215.542969 226.949219 C 215.542969 216.203125 224.296875 207.445312 235.042969 207.445312 C 245.800781 207.445312 254.558594 216.203125 254.558594 226.949219 C 254.558594 237.707031 245.800781 246.449219 235.042969 246.449219 Z M 187.496094 155.15625 C 176.738281 155.15625 167.992188 146.402344 167.992188 135.65625 C 167.992188 124.898438 176.738281 116.144531 187.496094 116.144531 C 198.253906 116.144531 206.996094 124.898438 206.996094 135.65625 C 206.996094 146.402344 198.253906 155.15625 187.496094 155.15625 Z M 187.496094 200.804688 C 176.738281 200.804688 167.992188 192.058594 167.992188 181.300781 C 167.992188 170.546875 176.738281 161.800781 187.496094 161.800781 C 198.253906 161.800781 206.996094 170.546875 206.996094 181.300781 C 206.996094 192.058594 198.253906 200.804688 187.496094 200.804688 Z M 187.496094 246.449219 C 176.738281 246.449219 167.992188 237.707031 167.992188 226.949219 C 167.992188 216.203125 176.738281 207.445312 187.496094 207.445312 C 198.253906 207.445312 206.996094 216.203125 206.996094 226.949219 C 206.996094 237.707031 198.253906 246.449219 187.496094 246.449219 Z M 139.945312 155.15625 C 129.1875 155.15625 120.445312 146.402344 120.445312 135.65625 C 120.445312 124.898438 129.1875 116.144531 139.945312 116.144531 C 150.703125 116.144531 159.449219 124.898438 159.449219 135.65625 C 159.449219 146.402344 150.703125 155.15625 139.945312 155.15625 Z M 139.945312 200.804688 C 129.1875 200.804688 120.445312 192.058594 120.445312 181.300781 C 120.445312 170.546875 129.1875 161.800781 139.945312 161.800781 C 150.703125 161.800781 159.449219 170.546875 159.449219 181.300781 C 159.449219 192.058594 150.703125 200.804688 139.945312 200.804688 Z M 139.945312 246.449219 C 129.1875 246.449219 120.445312 237.707031 120.445312 226.949219 C 120.445312 216.203125 129.1875 207.445312 139.945312 207.445312 C 150.703125 207.445312 159.449219 216.203125 159.449219 226.949219 C 159.449219 237.707031 150.703125 246.449219 139.945312 246.449219 Z M 111.886719 259.757812 L 263.101562 259.757812 C 272.015625 259.757812 279.257812 252.507812 279.257812 243.59375 L 279.257812 41.023438 C 279.257812 32.109375 272.015625 24.859375 263.101562 24.859375 L 111.886719 24.859375 C 102.972656 24.859375 95.734375 32.109375 95.734375 41.023438 L 95.734375 243.59375 C 95.734375 252.507812 102.972656 259.757812 111.886719 259.757812 " fill-opacity="1" fill-rule="nonzero"/><path fill="#ffffff" d="M 140.183594 77.160156 L 234.816406 77.160156 C 238.871094 77.160156 242.175781 73.851562 242.175781 69.789062 L 242.175781 65.515625 C 242.175781 61.453125 238.871094 58.144531 234.816406 58.144531 L 140.183594 58.144531 C 136.121094 58.144531 132.8125 61.453125 132.8125 65.515625 L 132.8125 69.789062 C 132.8125 73.851562 136.121094 77.160156 140.183594 77.160156 " fill-opacity="1" fill-rule="nonzero"/><path fill="#ffffff" d="M 182.277344 135.65625 C 182.277344 142.558594 192.722656 142.558594 192.722656 135.65625 C 192.722656 128.742188 182.277344 128.742188 182.277344 135.65625 " fill-opacity="1" fill-rule="nonzero"/><path fill="#ffffff" d="M 134.714844 226.949219 C 134.714844 233.863281 145.175781 233.851562 145.175781 226.949219 C 145.175781 220.046875 134.714844 220.046875 134.714844 226.949219 " fill-opacity="1" fill-rule="nonzero"/><path fill="#ffffff" d="M 134.714844 181.300781 C 134.714844 188.203125 145.175781 188.203125 145.175781 181.300781 C 145.175781 174.398438 134.714844 174.398438 134.714844 181.300781 " fill-opacity="1" fill-rule="nonzero"/><g clip-path="url(#daa2b95aa3)"><path fill="#43d19d" d="M 95.734375 41.023438 C 95.734375 32.109375 102.972656 24.859375 111.886719 24.859375 L 263.101562 24.859375 C 272.015625 24.859375 279.257812 32.109375 279.257812 41.023438 L 279.257812 243.59375 C 279.257812 252.507812 272.015625 259.757812 263.101562 259.757812 L 111.886719 259.757812 C 102.972656 259.757812 95.734375 252.507812 95.734375 243.59375 Z M 111.886719 274.03125 L 263.101562 274.03125 C 279.886719 274.03125 293.539062 260.375 293.539062 243.59375 L 293.539062 41.023438 C 293.539062 24.242188 279.886719 10.585938 263.101562 10.585938 L 111.886719 10.585938 C 95.105469 10.585938 81.449219 24.242188 81.449219 41.023438 L 81.449219 243.59375 C 81.449219 260.375 95.105469 274.03125 111.886719 274.03125 " fill-opacity="1" fill-rule="nonzero"/></g><path fill="#43d19d" d="M 132.8125 65.515625 C 132.8125 61.453125 136.121094 58.144531 140.183594 58.144531 L 234.816406 58.144531 C 238.871094 58.144531 242.175781 61.453125 242.175781 65.515625 L 242.175781 69.789062 C 242.175781 73.851562 238.871094 77.160156 234.816406 77.160156 L 140.183594 77.160156 C 136.121094 77.160156 132.8125 73.851562 132.8125 69.789062 Z M 140.183594 91.433594 L 234.816406 91.433594 C 246.738281 91.433594 256.460938 81.71875 256.460938 69.789062 L 256.460938 65.515625 C 256.460938 53.574219 246.738281 43.871094 234.816406 43.871094 L 140.183594 43.871094 C 128.253906 43.871094 118.542969 53.574219 118.542969 65.515625 L 118.542969 69.789062 C 118.542969 81.71875 128.253906 91.433594 140.183594 91.433594 " fill-opacity="1" fill-rule="nonzero"/><path fill="#43d19d" d="M 229.824219 135.65625 C 229.824219 128.742188 240.273438 128.742188 240.273438 135.65625 C 240.273438 142.558594 229.824219 142.558594 229.824219 135.65625 Z M 235.042969 116.144531 C 224.296875 116.144531 215.542969 124.898438 215.542969 135.65625 C 215.542969 146.402344 224.296875 155.15625 235.042969 155.15625 C 245.800781 155.15625 254.558594 146.402344 254.558594 135.65625 C 254.558594 124.898438 245.800781 116.144531 235.042969 116.144531 " fill-opacity="1" fill-rule="nonzero"/><path fill="#43d19d" d="M 182.277344 135.65625 C 182.277344 128.742188 192.722656 128.742188 192.722656 135.65625 C 192.722656 142.558594 182.277344 142.558594 182.277344 135.65625 Z M 187.496094 116.144531 C 176.738281 116.144531 167.992188 124.898438 167.992188 135.65625 C 167.992188 146.402344 176.738281 155.15625 187.496094 155.15625 C 198.253906 155.15625 206.996094 146.402344 206.996094 135.65625 C 206.996094 124.898438 198.253906 116.144531 187.496094 116.144531 " fill-opacity="1" fill-rule="nonzero"/><path fill="#43d19d" d="M 134.714844 135.65625 C 134.714844 128.742188 145.175781 128.742188 145.175781 135.65625 C 145.175781 142.558594 134.714844 142.558594 134.714844 135.65625 Z M 139.945312 116.144531 C 129.1875 116.144531 120.445312 124.898438 120.445312 135.65625 C 120.445312 146.402344 129.1875 155.15625 139.945312 155.15625 C 150.703125 155.15625 159.449219 146.402344 159.449219 135.65625 C 159.449219 124.898438 150.703125 116.144531 139.945312 116.144531 " fill-opacity="1" fill-rule="nonzero"/><path fill="#43d19d" d="M 229.824219 181.300781 C 229.824219 174.398438 240.273438 174.398438 240.273438 181.300781 C 240.273438 188.203125 229.824219 188.203125 229.824219 181.300781 Z M 235.042969 161.800781 C 224.296875 161.800781 215.542969 170.546875 215.542969 181.300781 C 215.542969 192.058594 224.296875 200.804688 235.042969 200.804688 C 245.800781 200.804688 254.558594 192.058594 254.558594 181.300781 C 254.558594 170.546875 245.800781 161.800781 235.042969 161.800781 " fill-opacity="1" fill-rule="nonzero"/><path fill="#43d19d" d="M 182.277344 181.300781 C 182.277344 174.398438 192.722656 174.398438 192.722656 181.300781 C 192.722656 188.203125 182.277344 188.203125 182.277344 181.300781 Z M 187.496094 161.800781 C 176.738281 161.800781 167.992188 170.546875 167.992188 181.300781 C 167.992188 192.058594 176.738281 200.804688 187.496094 200.804688 C 198.253906 200.804688 206.996094 192.058594 206.996094 181.300781 C 206.996094 170.546875 198.253906 161.800781 187.496094 161.800781 " fill-opacity="1" fill-rule="nonzero"/><path fill="#43d19d" d="M 134.714844 181.300781 C 134.714844 174.398438 145.175781 174.398438 145.175781 181.300781 C 145.175781 188.203125 134.714844 188.203125 134.714844 181.300781 Z M 139.945312 161.800781 C 129.1875 161.800781 120.445312 170.546875 120.445312 181.300781 C 120.445312 192.058594 129.1875 200.804688 139.945312 200.804688 C 150.703125 200.804688 159.449219 192.058594 159.449219 181.300781 C 159.449219 170.546875 150.703125 161.800781 139.945312 161.800781 " fill-opacity="1" fill-rule="nonzero"/><path fill="#43d19d" d="M 235.042969 232.179688 C 228.140625 232.179688 228.140625 221.730469 235.042969 221.730469 C 241.945312 221.730469 241.957031 232.179688 235.042969 232.179688 Z M 235.042969 207.445312 C 224.296875 207.445312 215.542969 216.203125 215.542969 226.949219 C 215.542969 237.707031 224.296875 246.449219 235.042969 246.449219 C 245.800781 246.449219 254.558594 237.707031 254.558594 226.949219 C 254.558594 216.203125 245.800781 207.445312 235.042969 207.445312 " fill-opacity="1" fill-rule="nonzero"/><path fill="#43d19d" d="M 182.277344 226.949219 C 182.277344 220.046875 192.722656 220.046875 192.722656 226.949219 C 192.722656 233.851562 182.277344 233.863281 182.277344 226.949219 Z M 187.496094 207.445312 C 176.738281 207.445312 167.992188 216.203125 167.992188 226.949219 C 167.992188 237.707031 176.738281 246.449219 187.496094 246.449219 C 198.253906 246.449219 206.996094 237.707031 206.996094 226.949219 C 206.996094 216.203125 198.253906 207.445312 187.496094 207.445312 " fill-opacity="1" fill-rule="nonzero"/><path fill="#43d19d" d="M 134.714844 226.949219 C 134.714844 220.046875 145.175781 220.046875 145.175781 226.949219 C 145.175781 233.851562 134.714844 233.863281 134.714844 226.949219 Z M 139.945312 207.445312 C 129.1875 207.445312 120.445312 216.203125 120.445312 226.949219 C 120.445312 237.707031 129.1875 246.449219 139.945312 246.449219 C 150.703125 246.449219 159.449219 237.707031 159.449219 226.949219 C 159.449219 216.203125 150.703125 207.445312 139.945312 207.445312 " fill-opacity="1" fill-rule="nonzero"/><g fill="#ffffff" fill-opacity="1"><g transform="translate(53.276424, 306.102858)"><g><path d="M 10.234375 -24.265625 C 10.421875 -24.296875 10.710938 -24.3125 11.109375 -24.3125 L 12.015625 -24.3125 C 13.578125 -24.3125 15.101562 -24.191406 16.59375 -23.953125 C 17.351562 -23.835938 17.945312 -23.722656 18.375 -23.609375 L 18.375 -18.609375 C 18.019531 -18.628906 17.4375 -18.6875 16.625 -18.78125 C 15.53125 -18.90625 14.578125 -18.96875 13.765625 -18.96875 C 12.847656 -18.96875 12.113281 -18.9375 11.5625 -18.875 C 11.019531 -18.8125 10.578125 -18.710938 10.234375 -18.578125 Z M 12.015625 0.28125 C 9.679688 0.28125 7.832031 0.078125 6.46875 -0.328125 C 5.113281 -0.734375 4.085938 -1.414062 3.390625 -2.375 C 2.710938 -3.28125 2.25 -4.484375 2 -5.984375 C 1.757812 -7.484375 1.640625 -9.492188 1.640625 -12.015625 C 1.640625 -14.222656 1.726562 -16.015625 1.90625 -17.390625 C 2.082031 -18.765625 2.398438 -19.914062 2.859375 -20.84375 C 3.347656 -21.800781 4.0625 -22.539062 5 -23.0625 C 5.945312 -23.59375 7.203125 -23.945312 8.765625 -24.125 L 8.765625 -12.015625 C 8.765625 -10.710938 8.785156 -9.453125 8.828125 -8.234375 C 8.878906 -7.304688 9.0625 -6.609375 9.375 -6.140625 C 9.6875 -5.679688 10.179688 -5.390625 10.859375 -5.265625 C 11.515625 -5.128906 12.484375 -5.0625 13.765625 -5.0625 C 15.085938 -5.0625 16.210938 -5.117188 17.140625 -5.234375 C 17.515625 -5.253906 17.972656 -5.3125 18.515625 -5.40625 L 18.515625 -0.34375 C 17.367188 -0.09375 16.070312 0.078125 14.625 0.171875 C 13.832031 0.242188 12.960938 0.28125 12.015625 0.28125 Z M 12.015625 0.28125 "/></g></g></g><g fill="#ffffff" fill-opacity="1"><g transform="translate(82.431829, 306.102858)"><g><path d="M 11.109375 -11.03125 C 11.109375 -11.632812 11.082031 -12.066406 11.03125 -12.328125 C 10.988281 -12.585938 10.847656 -12.773438 10.609375 -12.890625 C 10.398438 -13.003906 10.003906 -13.082031 9.421875 -13.125 C 9.078125 -13.15625 8.320312 -13.171875 7.15625 -13.171875 C 6.039062 -13.171875 5.003906 -13.125 4.046875 -13.03125 L 2.203125 -12.921875 L 2.203125 -17.46875 C 4.390625 -17.882812 6.753906 -18.09375 9.296875 -18.09375 C 11.242188 -18.09375 12.769531 -17.953125 13.875 -17.671875 C 14.988281 -17.390625 15.820312 -16.945312 16.375 -16.34375 C 16.863281 -15.78125 17.179688 -15.066406 17.328125 -14.203125 C 17.484375 -13.347656 17.5625 -12.148438 17.5625 -10.609375 L 17.5625 0 L 11.109375 0 Z M 5.9375 0.25 C 4.332031 0.25 3.144531 -0.195312 2.375 -1.09375 C 1.601562 -1.988281 1.21875 -3.347656 1.21875 -5.171875 C 1.21875 -6.285156 1.300781 -7.1875 1.46875 -7.875 C 1.632812 -8.5625 1.914062 -9.101562 2.3125 -9.5 C 2.707031 -9.914062 3.253906 -10.210938 3.953125 -10.390625 C 4.648438 -10.566406 5.566406 -10.65625 6.703125 -10.65625 L 9.640625 -10.578125 L 9.640625 -7.46875 L 9.296875 -7.46875 C 8.753906 -7.46875 8.398438 -7.457031 8.234375 -7.4375 C 7.773438 -7.414062 7.535156 -7.195312 7.515625 -6.78125 C 7.484375 -6.632812 7.46875 -6.34375 7.46875 -5.90625 C 7.46875 -5.550781 7.484375 -5.28125 7.515625 -5.09375 C 7.554688 -4.90625 7.625 -4.753906 7.71875 -4.640625 C 7.832031 -4.484375 8.003906 -4.390625 8.234375 -4.359375 C 8.566406 -4.316406 8.921875 -4.296875 9.296875 -4.296875 L 9.640625 -4.296875 L 9.640625 -0.734375 C 9.128906 -0.335938 8.585938 -0.078125 8.015625 0.046875 C 7.441406 0.179688 6.75 0.25 5.9375 0.25 Z M 5.9375 0.25 "/></g></g></g><g fill="#ffffff" fill-opacity="1"><g transform="translate(111.238078, 306.102858)"><g><path d="M 1.984375 -25.953125 L 8.453125 -25.953125 L 8.453125 0 L 1.984375 0 Z M 1.984375 -25.953125 "/></g></g></g><g fill="#ffffff" fill-opacity="1"><g transform="translate(131.001428, 306.102858)"><g><path d="M 13.546875 -13.03125 C 12.960938 -13.125 12.125 -13.171875 11.03125 -13.171875 C 10.3125 -13.171875 9.800781 -13.125 9.5 -13.03125 L 9.5 -18.09375 C 11.15625 -18.0625 12.863281 -17.851562 14.625 -17.46875 L 14.625 -12.921875 Z M 9.25 0.28125 C 7.4375 0.28125 5.992188 0.0625 4.921875 -0.375 C 3.847656 -0.820312 3.054688 -1.476562 2.546875 -2.34375 C 2.078125 -3.082031 1.78125 -3.953125 1.65625 -4.953125 C 1.53125 -5.953125 1.46875 -7.257812 1.46875 -8.875 C 1.46875 -10.332031 1.523438 -11.550781 1.640625 -12.53125 C 1.753906 -13.507812 2 -14.375 2.375 -15.125 C 2.8125 -15.976562 3.476562 -16.644531 4.375 -17.125 C 5.28125 -17.601562 6.5 -17.898438 8.03125 -18.015625 L 8.03125 -8.90625 C 8.03125 -7.882812 8.054688 -7.113281 8.109375 -6.59375 C 8.171875 -6.082031 8.296875 -5.6875 8.484375 -5.40625 C 8.691406 -5.132812 8.988281 -4.9375 9.375 -4.8125 C 9.757812 -4.695312 10.3125 -4.640625 11.03125 -4.640625 C 12.269531 -4.640625 13.117188 -4.675781 13.578125 -4.75 L 14.765625 -4.890625 L 14.765625 -0.34375 C 13.046875 0.0703125 11.207031 0.28125 9.25 0.28125 Z M 9.25 0.28125 "/></g></g></g><g fill="#ffffff" fill-opacity="1"><g transform="translate(156.560621, 306.102858)"><g><path d="M 6.984375 0.25 C 4.890625 0.25 3.484375 -0.390625 2.765625 -1.671875 C 2.429688 -2.234375 2.207031 -2.914062 2.09375 -3.71875 C 1.976562 -4.519531 1.921875 -5.503906 1.921875 -6.671875 L 1.921875 -17.8125 L 8.375 -17.8125 L 8.375 -9.390625 C 8.375 -8.160156 8.390625 -7.347656 8.421875 -6.953125 C 8.460938 -6.367188 8.53125 -5.945312 8.625 -5.6875 C 8.71875 -5.4375 8.867188 -5.28125 9.078125 -5.21875 C 9.285156 -5.164062 9.660156 -5.140625 10.203125 -5.140625 L 10.546875 -5.140625 L 10.546875 -0.765625 C 9.640625 -0.0859375 8.453125 0.25 6.984375 0.25 Z M 12.015625 -17.8125 L 18.46875 -17.8125 L 18.46875 0 L 12.015625 0 Z M 12.015625 -17.8125 "/></g></g></g><g fill="#ffffff" fill-opacity="1"><g transform="translate(186.344477, 306.102858)"><g><path d="M 1.984375 -25.953125 L 8.453125 -25.953125 L 8.453125 0 L 1.984375 0 Z M 1.984375 -25.953125 "/></g></g></g><g fill="#ffffff" fill-opacity="1"><g transform="translate(206.107823, 306.102858)"><g><path d="M 11.109375 -11.03125 C 11.109375 -11.632812 11.082031 -12.066406 11.03125 -12.328125 C 10.988281 -12.585938 10.847656 -12.773438 10.609375 -12.890625 C 10.398438 -13.003906 10.003906 -13.082031 9.421875 -13.125 C 9.078125 -13.15625 8.320312 -13.171875 7.15625 -13.171875 C 6.039062 -13.171875 5.003906 -13.125 4.046875 -13.03125 L 2.203125 -12.921875 L 2.203125 -17.46875 C 4.390625 -17.882812 6.753906 -18.09375 9.296875 -18.09375 C 11.242188 -18.09375 12.769531 -17.953125 13.875 -17.671875 C 14.988281 -17.390625 15.820312 -16.945312 16.375 -16.34375 C 16.863281 -15.78125 17.179688 -15.066406 17.328125 -14.203125 C 17.484375 -13.347656 17.5625 -12.148438 17.5625 -10.609375 L 17.5625 0 L 11.109375 0 Z M 5.9375 0.25 C 4.332031 0.25 3.144531 -0.195312 2.375 -1.09375 C 1.601562 -1.988281 1.21875 -3.347656 1.21875 -5.171875 C 1.21875 -6.285156 1.300781 -7.1875 1.46875 -7.875 C 1.632812 -8.5625 1.914062 -9.101562 2.3125 -9.5 C 2.707031 -9.914062 3.253906 -10.210938 3.953125 -10.390625 C 4.648438 -10.566406 5.566406 -10.65625 6.703125 -10.65625 L 9.640625 -10.578125 L 9.640625 -7.46875 L 9.296875 -7.46875 C 8.753906 -7.46875 8.398438 -7.457031 8.234375 -7.4375 C 7.773438 -7.414062 7.535156 -7.195312 7.515625 -6.78125 C 7.484375 -6.632812 7.46875 -6.34375 7.46875 -5.90625 C 7.46875 -5.550781 7.484375 -5.28125 7.515625 -5.09375 C 7.554688 -4.90625 7.625 -4.753906 7.71875 -4.640625 C 7.832031 -4.484375 8.003906 -4.390625 8.234375 -4.359375 C 8.566406 -4.316406 8.921875 -4.296875 9.296875 -4.296875 L 9.640625 -4.296875 L 9.640625 -0.734375 C 9.128906 -0.335938 8.585938 -0.078125 8.015625 0.046875 C 7.441406 0.179688 6.75 0.25 5.9375 0.25 Z M 5.9375 0.25 "/></g></g></g><g fill="#ffffff" fill-opacity="1"><g transform="translate(234.914065, 306.102858)"><g><path d="M 0.625 -17.8125 L 3.90625 -17.8125 L 3.90625 -22.984375 L 10.375 -22.984375 L 10.375 -17.8125 L 14.28125 -17.8125 L 14.28125 -12.890625 L 0.625 -12.890625 Z M 3.90625 -11.484375 L 10.375 -11.484375 L 10.375 0 L 3.90625 0 Z M 3.90625 -11.484375 "/></g></g></g><g fill="#ffffff" fill-opacity="1"><g transform="translate(259.146488, 306.102858)"><g><path d="M 11.9375 -8.875 C 11.9375 -10.0625 11.925781 -10.851562 11.90625 -11.25 C 11.882812 -11.800781 11.816406 -12.222656 11.703125 -12.515625 C 11.585938 -12.804688 11.398438 -12.988281 11.140625 -13.0625 C 10.859375 -13.132812 10.472656 -13.171875 9.984375 -13.171875 L 9.5 -13.171875 L 9.5 -18.09375 L 9.984375 -18.09375 C 12.015625 -18.09375 13.597656 -17.929688 14.734375 -17.609375 C 15.878906 -17.296875 16.726562 -16.78125 17.28125 -16.0625 C 17.789062 -15.414062 18.125 -14.550781 18.28125 -13.46875 C 18.4375 -12.382812 18.515625 -10.851562 18.515625 -8.875 C 18.515625 -7.03125 18.457031 -5.601562 18.34375 -4.59375 C 18.238281 -3.582031 17.988281 -2.75 17.59375 -2.09375 C 17.15625 -1.375 16.492188 -0.832031 15.609375 -0.46875 C 14.722656 -0.113281 13.5 0.109375 11.9375 0.203125 Z M 9.984375 0.28125 C 7.960938 0.28125 6.378906 0.128906 5.234375 -0.171875 C 4.097656 -0.472656 3.25 -0.988281 2.6875 -1.71875 C 2.175781 -2.363281 1.84375 -3.222656 1.6875 -4.296875 C 1.539062 -5.367188 1.46875 -6.894531 1.46875 -8.875 C 1.46875 -10.6875 1.523438 -12.101562 1.640625 -13.125 C 1.753906 -14.15625 2.007812 -15.007812 2.40625 -15.6875 C 2.820312 -16.425781 3.472656 -16.972656 4.359375 -17.328125 C 5.242188 -17.691406 6.46875 -17.921875 8.03125 -18.015625 L 8.03125 -8.875 C 8.03125 -7.6875 8.039062 -6.90625 8.0625 -6.53125 C 8.09375 -5.96875 8.164062 -5.546875 8.28125 -5.265625 C 8.394531 -4.992188 8.59375 -4.820312 8.875 -4.75 C 9.101562 -4.675781 9.472656 -4.640625 9.984375 -4.640625 L 10.484375 -4.640625 L 10.484375 0.28125 Z M 9.984375 0.28125 "/></g></g></g><g fill="#ffffff" fill-opacity="1"><g transform="translate(288.441541, 306.102858)"><g><path d="M 9.921875 -16.796875 C 10.410156 -17.265625 10.984375 -17.597656 11.640625 -17.796875 C 12.304688 -17.992188 13.128906 -18.09375 14.109375 -18.09375 L 14.109375 -12.25 C 13.054688 -12.25 12.195312 -12.179688 11.53125 -12.046875 C 10.875 -11.910156 10.335938 -11.664062 9.921875 -11.3125 Z M 1.984375 -17.8125 L 8.453125 -17.8125 L 8.453125 0 L 1.984375 0 Z M 1.984375 -17.8125 "/></g></g></g><g fill="#ffffff" fill-opacity="1"><g transform="translate(312.616115, 306.102858)"><g/></g></g><g fill="#ffffff" fill-opacity="1"><g transform="translate(130.155704, 354.912737)"><g><path d="M 2.265625 -24.03125 L 9.25 -24.03125 L 9.25 0 L 2.265625 0 Z M 10.71875 -8.421875 L 10.71875 -15.921875 L 16.234375 -24.03125 L 23.859375 -24.03125 L 15.578125 -12.71875 L 23.953125 0 L 16.140625 0 Z M 10.71875 -8.421875 "/></g></g></g><g fill="#ffffff" fill-opacity="1"><g transform="translate(163.326289, 354.912737)"><g><path d="M 2.265625 -24.03125 L 9.25 -24.03125 L 9.25 0 L 2.265625 0 Z M 10.71875 -24.03125 L 19.59375 -24.03125 L 19.59375 -18.6875 L 10.71875 -18.6875 Z M 10.71875 -14.8125 L 17.953125 -14.8125 L 17.953125 -9.46875 L 10.71875 -9.46875 Z M 10.71875 -5.34375 L 19.59375 -5.34375 L 19.59375 0 L 10.71875 0 Z M 10.71875 -5.34375 "/></g></g></g><g fill="#ffffff" fill-opacity="1"><g transform="translate(194.157594, 354.912737)"><g><path d="M 10.234375 -24.265625 C 10.421875 -24.296875 10.710938 -24.3125 11.109375 -24.3125 L 12.015625 -24.3125 C 13.578125 -24.3125 15.101562 -24.191406 16.59375 -23.953125 C 17.351562 -23.835938 17.945312 -23.722656 18.375 -23.609375 L 18.375 -18.609375 C 18.019531 -18.628906 17.4375 -18.6875 16.625 -18.78125 C 15.53125 -18.90625 14.578125 -18.96875 13.765625 -18.96875 C 12.847656 -18.96875 12.113281 -18.9375 11.5625 -18.875 C 11.019531 -18.8125 10.578125 -18.710938 10.234375 -18.578125 Z M 12.015625 0.28125 C 9.679688 0.28125 7.832031 0.078125 6.46875 -0.328125 C 5.113281 -0.734375 4.085938 -1.414062 3.390625 -2.375 C 2.710938 -3.28125 2.25 -4.484375 2 -5.984375 C 1.757812 -7.484375 1.640625 -9.492188 1.640625 -12.015625 C 1.640625 -14.222656 1.726562 -16.015625 1.90625 -17.390625 C 2.082031 -18.765625 2.398438 -19.914062 2.859375 -20.84375 C 3.347656 -21.800781 4.0625 -22.539062 5 -23.0625 C 5.945312 -23.59375 7.203125 -23.945312 8.765625 -24.125 L 8.765625 -12.015625 C 8.765625 -10.710938 8.785156 -9.453125 8.828125 -8.234375 C 8.878906 -7.304688 9.0625 -6.609375 9.375 -6.140625 C 9.6875 -5.679688 10.179688 -5.390625 10.859375 -5.265625 C 11.515625 -5.128906 12.484375 -5.0625 13.765625 -5.0625 C 15.085938 -5.0625 16.210938 -5.117188 17.140625 -5.234375 C 17.515625 -5.253906 17.972656 -5.3125 18.515625 -5.40625 L 18.515625 -0.34375 C 17.367188 -0.09375 16.070312 0.078125 14.625 0.171875 C 13.832031 0.242188 12.960938 0.28125 12.015625 0.28125 Z M 12.015625 0.28125 "/></g></g></g><g fill="#ffffff" fill-opacity="1"><g transform="translate(223.312997, 354.912737)"><g><path d="M 2.265625 -24.03125 L 9.25 -24.03125 L 9.25 0 L 2.265625 0 Z M 10.71875 -24.03125 L 19.59375 -24.03125 L 19.59375 -18.6875 L 10.71875 -18.6875 Z M 10.71875 -14.8125 L 17.953125 -14.8125 L 17.953125 -9.46875 L 10.71875 -9.46875 Z M 10.71875 -5.34375 L 19.59375 -5.34375 L 19.59375 0 L 10.71875 0 Z M 10.71875 -5.34375 "/></g></g></g></svg>